# xmcd
#
# Track frame offsets:
#	150
#	22929
#	45097
#	61568
#	77055
#	104367
#	125863
#	140087
#	155886
#	181444
#
# Disc length: 2736 seconds
#
# Revision: 1
# Processed by: cddbd v1.5.2PL0 Copyright (c) Steve Scherf et al.
# Submitted via: audiograbber 1.83.01
#
DISCID=800aae0a
DTITLE=Rod Mason Band  - Existentialism-Revival Jazz Of The 60's  CD8 (1960)
DYEAR=1960
DGENRE=Jazz
TTITLE0=High Society
TTITLE1=Beale Street Blues
TTITLE2=You're Driving Me Crazy
TTITLE3=Sweet Georgia Brown
TTITLE4=Georgia On My Mind
TTITLE5=Carry Me Back
TTITLE6=You Made Me Love You
TTITLE7=Salutation
TTITLE8=Hushaby
TTITLE9=Basin Street Blues
EXTD=YEAR: 1960
EXTT0=
EXTT1=
EXTT2=
EXTT3=
EXTT4=
EXTT5=
EXTT6=
EXTT7=
EXTT8=
EXTT9=
PLAYORDER=
